<svg xmlns="http://www.w3.org/2000/svg" xmlns:xlink="http://www.w3.org/1999/xlink" width="12" height="12"><rect id="backgroundrect" width="100%" height="100%" x="0" y="0" fill="none" stroke="none"/>
  <defs>
    <linearGradient id="gradient-2">
      <stop offset="0.31" style="stop-color: rgb(85, 0, 255);"/>
      <stop offset="1" style="stop-color: rgb(247, 0, 255);"/>
    </linearGradient>
    <linearGradient gradientUnits="userSpaceOnUse" x1="8.20300006866455" y1="2.005000114440918" x2="8.20300006866455" y2="13.60200023651123" id="gradient-2-1" xlink:href="#gradient-2"/>
  </defs>
  
<g class="currentLayer" style=""><title>Layer 1</title><path d="M3.506025045928955,10.21401773376465 C3.679598375928955,10.387617733764648 3.6988843059289547,10.65705973376465 3.563882825928955,10.851887733764649 L3.506025045928955,10.921117733764648 L2.9765950459289554,11.450617733764648 C2.781335045928955,11.645817733764648 2.464755045928955,11.645817733764648 2.2694850459289553,11.450617733764648 C2.0959206059289546,11.277017733764648 2.076635665928955,11.007575733764648 2.211630235928955,10.812747733764649 L2.2694850459289553,10.743517733764648 L2.7989250459289554,10.21401773376465 C2.9941850459289547,10.018817733764648 3.310765045928955,10.018817733764648 3.506025045928955,10.21401773376465 zM2.444625045928955,9.152517733764649 C2.618198375928955,9.326117733764649 2.6374843059289548,9.595559733764649 2.502482825928955,9.790387733764648 L2.444625045928955,9.85961773376465 L1.124385045928955,11.179917733764649 C0.9291250459289553,11.375117733764649 0.6125450459289552,11.375117733764649 0.4172750459289549,11.179917733764649 C0.2437106059289551,11.006317733764648 0.2244256659289552,10.736875733764649 0.3594202359289551,10.54204773376465 L0.4172750459289549,10.472817733764648 L1.7375250459289555,9.152517733764649 C1.9327850459289548,8.957217733764649 2.249365045928955,8.957217733764649 2.444625045928955,9.152517733764649 zM10.101615045928956,0.2235277337646484 C10.707815045928955,0.41440773376464834 11.182715045928955,0.8892577337646488 11.373515045928954,1.4954877337646484 C11.891758545928955,3.1412407737646486 11.493238345928955,4.932010833764648 10.341345645928955,6.200886713764648 L10.179615045928955,6.370617733764648 L9.550715045928955,6.999487733764649 C9.900777545928955,7.8128346137646485 9.775351745928955,8.781827033764648 9.174520145928955,9.48364233376465 L9.048015045928954,9.620317733764649 L8.262515045928955,10.405817733764648 C8.088915045928955,10.579417733764648 7.819473045928955,10.598706633764648 7.624624045928956,10.463684433764648 L7.555385045928956,10.405817733764648 L6.705325045928955,9.555717733764649 C6.256639045928955,9.673167733764648 5.764164445928955,9.579531733764648 5.385336085928955,9.274809733764648 L5.263485045928955,9.165417733764649 L5.096935045928955,8.998817733764648 L4.634695045928955,9.771217733764649 C4.555575045928955,9.903417733764648 4.419925045928955,9.991717733764649 4.267025045928955,10.010617733764649 C4.144705045928955,10.025737733764648 4.022269845928955,9.995097733764648 3.9224164059289555,9.92642893376465 L3.8521150459289553,9.86791773376465 L1.729095045928955,7.744947733764649 C1.6201250459289547,7.635977733764648 1.567495045928955,7.482847733764649 1.5864450459289552,7.329917733764649 C1.6015970459289548,7.207565733764648 1.6612098459289548,7.096279333764649 1.752171125928955,7.016169893764648 L1.8260650459289547,6.962247733764649 L2.598485045928955,6.500407733764648 L2.4316650459289555,6.333587733764649 C2.079999045928955,5.981930733764648 1.9394514459289551,5.499094233764648 2.0100149559289555,5.042578683764648 L2.041355045928955,4.891597733764648 L1.1914450459289552,4.041677733764648 C1.017880605928955,3.8681132937646483 0.998595665928955,3.5986910637646483 1.1335902359289554,3.4038248937646483 L1.1914450459289552,3.3345777337646485 L1.9769250459289553,2.5490977337646488 C2.6411812959289547,1.8848414837646486 3.600837935928955,1.6960119937646487 4.433039435928955,1.9826174937646486 L4.597655045928955,2.046277733764648 L5.226465045928955,1.4174777337646485 C6.501965045928955,0.14196773376464833 8.381015045928955,-0.31822226623535155 10.101615045928956,0.2235277337646484 zM1.382985045928955,8.091117733764648 C1.5782450459289548,8.28641773376465 1.5782450459289548,8.603017733764649 1.382985045928955,8.798217733764648 L0.8535450459289553,9.327617733764649 C0.6582850459289551,9.522917733764649 0.341705045928955,9.522917733764649 0.14644504592895524,9.327617733764649 C-0.04881495407104497,9.13241773376465 -0.04881495407104497,8.815817733764648 0.14644504592895524,8.620517733764649 L0.6758750459289553,8.091117733764648 C0.8711350459289551,7.895867733764648 1.1877250459289552,7.895867733764648 1.382985045928955,8.091117733764648 zM8.738115045928955,7.812097733764649 L7.556995045928955,8.993217733764649 L7.908915045928955,9.34511773376465 L8.340815045928956,8.913217733764649 C8.642215045928955,8.611917733764649 8.774615045928956,8.20561773376465 8.738115045928955,7.812097733764649 zM3.3276350459289556,7.229557733764649 L2.8897450459289553,7.491377733764649 L4.1058850459289555,8.707517733764648 L4.367865045928955,8.269817733764649 L3.3276350459289556,7.229557733764649 zM6.097242695928955,1.9701977137646485 L5.933575045928956,2.1245777337646485 L3.1387750459289547,4.919377733764648 C2.965210605928955,5.092942173764649 2.9459256659289554,5.362372303764649 3.0809202359289554,5.557240233764649 L3.1387750459289547,5.626487733764648 L5.970595045928956,8.458317733764648 C6.144159485928956,8.631828833764649 6.413581715928956,8.651107833764648 6.608447885928955,8.516154733764647 L6.677695045928955,8.458317733764648 L9.472515045928954,5.663507733764648 C10.484415045928955,4.651587733764648 10.849515045928955,3.1608277337646484 10.419715045928955,1.7958177337646486 C10.326915045928954,1.5010577337646485 10.096015045928954,1.2701677337646484 9.801215045928956,1.1773577337646484 C8.508057145928955,0.7701787837646483 7.102064685928955,1.0764280937646484 6.097242695928955,1.9701977137646485 zM8.252315045928956,3.3448477337646487 C8.884815045928955,3.9774077337646485 8.889915045928955,5.003927733764648 8.256215045928956,5.637637733764649 C7.622515045928955,6.271337733764648 6.596025045928956,6.266217733764648 5.963465045928956,5.6336577337646485 C5.330905045928955,5.001097733764649 5.3257850459289555,3.974577733764648 5.959485045928956,3.3408677337646484 C6.593195045928955,2.7071577337646486 7.619715045928954,2.712287733764649 8.252315045928956,3.3448477337646487 zM6.666595045928956,4.0479777337646485 C6.426755045928955,4.287817733764649 6.425185045928956,4.6811677337646485 6.670575045928954,4.926547733764648 C6.915955045928955,5.171937733764649 7.309305045928955,5.170367733764649 7.549145045928956,4.930527733764649 C7.789015045928956,4.690687733764649 7.790515045928956,4.297337733764649 7.545165045928956,4.051957733764649 C7.299785045928955,3.8065677337646484 6.906435045928955,3.8081377337646485 6.666595045928956,4.0479777337646485 zM2.801693035928955,3.151142613764648 L2.684025045928955,3.256207733764649 L2.252105045928955,3.6881277337646488 L2.603955045928955,4.0399777337646485 L3.785005045928955,2.858937733764648 C3.4406837959289547,2.8270527337646483 3.0866544259289554,2.924458823764649 2.801693035928955,3.151142613764648 z" style="fill: url(#gradient-2-1);" id="svg_1" class=""/></g></svg>